# xmcd CD Database Entry
#
# Track frame offsets:
# 150
# 11282
# 30532
# 52192
# 70930
# 90187
# 101300
# 118015
# 140012
# 174515
# 189070
# 209265
# 226855
# 253337
#
# Disc length: 3547 seconds
#
# Revision: 3
# Processed by: cddbd v1.4b41PL1 Copyright (c) Steve Scherf et al.
# Submitted via: tcd 2.0b
#
DISCID=b10dd90e
DTITLE=Nationalteatern - 14 Klassiker
DYEAR=1900
DGENRE=
TTITLE0=Ut i kylan
TTITLE1=Livet är en fest
TTITLE2=Jack the Ripper
TTITLE3=Speedy Gonzales
TTITLE4=Bängen trålar
TTITLE5=Lägg av!
TTITLE6=Hanna från Arlöv
TTITLE7=Kolla kolla
TTITLE8=Barn av vår tid
TTITLE9=Ingelas sång
TTITLE10=Popens Mussolinis
TTITLE11=Sent en lördagkväll
TTITLE12=Vi fortsätter spela Rock 'n' Roll
TTITLE13=Japp co co
EXTD=
EXTT0=
EXTT1=
EXTT2=
EXTT3=
EXTT4=
EXTT5=
EXTT6=
EXTT7=
EXTT8=
EXTT9=
EXTT10=
EXTT11=
EXTT12=
EXTT13=
PLAYORDER=
